# xmcd CD database file
#
# Track frame offsets:
#	150
#	21136
#	57177
#	90025
#	108289
#	130123
#	137408
#
# Disc length: 2406 seconds
#
# Revision: 0
# Processed by: cddbd v1.5.1PL0 Copyright (c) Steve Scherf et al.
# Submitted via: CDex 1.51
#
DISCID=48096407
DTITLE=George ADAMS and Don PULLEN - 1981 avril 5-6
DYEAR=1981
DGENRE=Jazz
TTITLE0=The Great Escape Or Run John Henry Run
TTITLE1=Seriously Speaking
TTITLE2=Soft Seas
TTITLE3=Nature's Children (part 1)
TTITLE4=Nature's Children (part 2)
TTITLE5=Protection
TTITLE6=Newcomer - Seven Years Later
EXTD=YEAR: 1981
EXTT0=
EXTT1=
EXTT2=
EXTT3=
EXTT4=
EXTT5=
EXTT6=
PLAYORDER=
